HIERARCHY
ROOT root
{
	OFFSET 0.000000 0.000000 0.000000
	CHANNELS 6 Xposition Yposition Zposition Zrotation Yrotation Xrotation
	JOINT lhip
	{
		OFFSET 0.058581 -0.082280 -0.017664
		CHANNELS 3 Zrotation Yrotation Xrotation
		JOINT lknee
		{
			OFFSET 0.043451 -0.386469 0.008037
			CHANNELS 3 Zrotation Yrotation Xrotation
			JOINT lankle
			{
				OFFSET -0.014790 -0.426874 -0.037428
				CHANNELS 3 Zrotation Yrotation Xrotation
				JOINT ltoe
				{
					OFFSET 0.041054 -0.060286 0.122042
					CHANNELS 3 Zrotation Yrotation Xrotation
					End Site
					{
						OFFSET 0.000000 0.000000 0.000000
					}
				}
			}
		}
	}
	JOINT rhip
	{
		OFFSET -0.060310 -0.090513 -0.013543
		CHANNELS 3 Zrotation Yrotation Xrotation
		JOINT rknee
		{
			OFFSET -0.043257 -0.383688 -0.004843
			CHANNELS 3 Zrotation Yrotation Xrotation
			JOINT rankle
			{
				OFFSET 0.019056 -0.420046 -0.034562
				CHANNELS 3 Zrotation Yrotation Xrotation
				JOINT rtoe
				{
					OFFSET -0.034840 -0.062106 0.130323
					CHANNELS 3 Zrotation Yrotation Xrotation
					End Site
					{
						OFFSET 0.000000 0.000000 0.000000
					}
				}
			}
		}
	}
	JOINT lowerback
	{
		OFFSET 0.004439 0.124404 -0.038385
		CHANNELS 3 Zrotation Yrotation Xrotation
		JOINT upperback
		{
			OFFSET 0.004488 0.137956 0.026820
			CHANNELS 3 Zrotation Yrotation Xrotation
			JOINT chest
			{
				OFFSET -0.002265 0.056032 0.002855
				CHANNELS 3 Zrotation Yrotation Xrotation
				JOINT lowerneck
				{
					OFFSET -0.013390 0.211636 -0.033468
					CHANNELS 3 Zrotation Yrotation Xrotation
					JOINT upperneck
					{
						OFFSET 0.010113 0.088937 0.050410
						CHANNELS 3 Zrotation Yrotation Xrotation
						End Site
						{
							OFFSET 0.000000 0.000000 0.000000
						}
					}
				}
				JOINT lclavicle
				{
					OFFSET 0.071702 0.114000 -0.018898
					CHANNELS 3 Zrotation Yrotation Xrotation
					JOINT lshoulder
					{
						OFFSET 0.122921 0.045205 -0.019046
						CHANNELS 3 Zrotation Yrotation Xrotation
						JOINT lelbow
						{
							OFFSET 0.255332 -0.015649 -0.022946
							CHANNELS 3 Zrotation Yrotation Xrotation
							JOINT lwrist
							{
								OFFSET 0.265709 0.012698 -0.007375
								CHANNELS 3 Zrotation Yrotation Xrotation
								End Site
								{
									OFFSET 0.000000 0.000000 0.000000
								}
							}
						}
					}
				}
				JOINT rclavicle
				{
					OFFSET -0.082954 0.112472 -0.023707
					CHANNELS 3 Zrotation Yrotation Xrotation
					JOINT rshoulder
					{
						OFFSET -0.113228 0.046853 -0.008472
						CHANNELS 3 Zrotation Yrotation Xrotation
						JOINT relbow
						{
							OFFSET -0.260127 -0.014369 -0.031269
							CHANNELS 3 Zrotation Yrotation Xrotation
							JOINT rwrist
							{
								OFFSET -0.269108 0.006794 -0.006027
								CHANNELS 3 Zrotation Yrotation Xrotation
								End Site
								{
									OFFSET 0.000000 0.000000 0.000000
								}
							}
						}
					}
				}
			}
		}
	}
}
MOTION
Frames: 10
Frame Time: 0.033333
0.112612 0.318655 0.679131 85.962964 -3.370809 88.314960 12.279195 -3.163313 -75.063145 -3.530361 18.609478 89.343288 7.405123 6.713407 -24.554113 0.000000 -0.000000 0.000000 -15.331240 -1.109633 0.298033 8.992693 7.846701 88.488037 7.912559 2.505001 -34.066729 0.000000 -0.000000 0.000000 -6.181230 9.575311 13.572222 6.430728 -14.993627 2.343657 -1.139565 -3.591316 -0.545751 -2.411781 10.872719 -7.785355 5.708240 0.068700 -9.973742 -17.239441 -28.126450 4.360180 -17.295216 -19.802821 -1.306852 1.642024 -48.159862 10.197887 -2.667226 -24.264469 -3.946606 19.365483 10.745414 4.584913 41.912361 -6.752773 15.916231 26.055959 72.855909 45.543804 5.456302 23.505526 -32.262735 
0.101518 0.314489 0.692509 85.873063 -3.231369 87.999602 12.053915 -3.345399 -73.335833 -4.001206 17.525373 85.946424 6.999955 6.721467 -22.734106 0.000000 -0.000000 0.000000 -14.789361 -1.027070 -0.291257 8.770171 7.504122 87.356281 7.608124 2.739720 -34.146803 0.000000 -0.000000 0.000000 -6.089159 9.303579 13.184499 6.384757 -14.584558 2.223283 -1.029336 -3.698348 -0.366955 -2.030308 10.616023 -7.799178 5.892320 -0.268594 -9.618200 -17.279487 -27.719264 4.312658 -18.618125 -20.112750 -0.750343 2.825688 -49.820286 10.160902 -2.471321 -24.315008 -3.048249 19.141775 10.593232 4.545544 42.642605 -6.613423 15.779761 26.220639 72.433078 45.690808 6.008664 23.317840 -32.876175 
0.088492 0.309257 0.707925 85.637665 -2.943437 87.545019 11.996953 -3.317807 -71.139874 -4.523216 16.290838 81.976565 6.480213 6.576244 -20.538838 0.000000 -0.000000 0.000000 -14.087104 -1.164311 -0.888230 8.297108 7.020161 85.939512 7.033950 2.468872 -34.296571 0.000000 -0.000000 0.000000 -5.850592 8.972981 12.844750 6.310063 -13.946859 2.143093 -0.823487 -3.700813 -0.238912 -1.699433 9.977076 -7.735320 6.144739 -0.341046 -9.159246 -17.533097 -26.781023 4.431920 -20.944521 -20.212852 0.029130 4.902613 -52.260481 8.796169 -0.479948 -24.097311 -4.111992 18.984138 10.322429 4.582225 43.364146 -6.348396 15.451014 25.593649 71.870535 45.474675 6.540648 23.082221 -31.710031 
0.073262 0.302943 0.725338 85.249027 -2.617348 86.980859 12.017730 -3.189608 -68.453907 -4.935512 14.905377 77.302229 5.803785 6.346889 -18.007367 0.000000 -0.000000 0.000000 -13.287225 -1.265424 -1.451400 7.745136 6.453887 84.173685 6.267588 2.068401 -34.502506 0.000000 -0.000000 0.000000 -5.533039 8.538691 12.470846 6.141280 -13.160288 2.209919 -0.611752 -3.572847 -0.130270 -1.324961 9.244340 -7.606717 6.416830 -0.294652 -8.509136 -17.904671 -25.333250 4.623319 -24.254190 -20.045228 1.005917 8.109673 -54.891132 6.034744 2.175600 -23.547461 -6.643303 18.896599 10.021736 4.651550 44.367052 -5.759439 14.990203 23.111511 70.975050 43.441874 7.294720 22.801214 -29.973617 
0.055408 0.295536 0.745029 84.778282 -2.232760 86.292003 12.055645 -3.028892 -65.198150 -5.227231 13.265582 71.765526 4.911183 6.062989 -15.081564 0.000000 -0.000000 0.000000 -12.370906 -1.197507 -1.809450 7.211849 5.806151 81.865874 5.419807 1.872049 -34.854890 0.000000 -0.000000 0.000000 -5.021742 7.923693 12.160373 5.852621 -12.304636 2.509181 -0.474894 -3.340759 -0.161221 -0.896922 8.533298 -7.297776 6.539794 -0.160932 -7.709535 -18.497202 -23.513617 4.901383 -28.123993 -19.395214 2.048994 12.159854 -57.178637 2.689483 4.061571 -22.965548 -9.160569 18.877566 9.902871 4.671301 45.774130 -4.703601 14.433748 18.899571 69.194592 39.638103 9.082227 22.428318 -28.083922 
0.034647 0.286952 0.766898 84.234539 -1.805157 85.535828 12.114663 -2.803891 -61.367484 -5.428769 11.369728 65.175994 3.771039 5.767372 -11.577073 0.000000 -0.000000 0.000000 -11.350821 -1.035730 -1.966862 6.689236 5.104597 78.908257 4.476055 1.922446 -35.326195 0.000000 -0.000000 0.000000 -4.349884 7.201812 11.899764 5.476955 -11.399214 2.987196 -0.391135 -3.009544 -0.252449 -0.530826 7.984293 -6.733012 6.410364 -0.148816 -6.865405 -19.276241 -21.503128 5.202544 -32.294291 -18.331412 3.128724 16.280474 -58.367009 -0.553324 5.115095 -22.458313 -11.181722 19.050067 10.081525 4.781708 47.383062 -3.025442 13.820798 13.722733 66.272706 34.744810 10.539345 21.631551 -25.709867 
0.010941 0.277042 0.790857 83.606086 -1.358166 84.800809 12.178736 -2.508208 -56.879406 -5.332946 9.250712 57.240294 2.395152 5.484605 -7.372028 0.000000 -0.000000 0.000000 -10.082137 -0.799161 -1.999314 6.130395 4.385755 75.247843 3.419264 1.831947 -35.652950 0.000000 -0.000000 0.000000 -3.657034 6.437778 11.600351 5.055730 -10.396739 3.771704 -0.288940 -2.594593 -0.447903 -0.297199 7.577128 -5.805811 6.073890 -0.230818 -6.256306 -20.146510 -19.400268 5.545459 -36.468863 -17.141535 4.133699 19.407066 -57.863006 -2.938017 5.737007 -21.917252 -12.997569 19.488594 10.583585 5.085400 48.939192 -0.662060 13.329527 8.688608 61.922162 29.601177 10.863510 20.821976 -23.409470 
-0.015575 0.266080 0.816322 83.127865 -0.933409 84.292655 12.091693 -2.335460 -51.821372 -4.851321 6.827916 47.646967 0.438943 5.378608 -4.448805 0.000000 -0.000000 0.000000 -8.527084 -0.522094 -1.954489 5.314632 3.524290 70.747364 2.459786 1.476267 -35.785801 0.000000 -0.000000 0.000000 -2.968958 5.616585 11.153607 4.544802 -9.394191 4.768251 -0.165476 -2.211084 -0.759616 -0.090292 7.303099 -4.396083 5.539112 -0.355901 -6.147235 -20.996204 -17.283465 5.947766 -40.571687 -15.979750 4.954198 21.382613 -55.488124 -4.226584 6.206500 -21.293445 -14.434541 19.975685 11.317792 5.483324 50.478828 2.485311 13.070674 4.997278 55.618559 25.404294 9.415442 20.288570 -21.612714 
-0.043639 0.254482 0.841670 82.845529 -0.685873 84.221344 11.841481 -2.299535 -46.548607 -4.162569 4.541969 37.007394 -0.973952 4.954190 -6.470832 0.000000 -0.000000 0.000000 -7.003858 -0.271178 -1.830436 4.309225 2.499601 65.314083 2.001003 1.063499 -36.228163 0.000000 -0.000000 0.000000 -2.475517 4.853314 10.473222 3.914207 -8.488853 5.540278 -0.000334 -1.791005 -1.059651 0.227196 7.184020 -2.508271 4.850618 -0.551941 -6.513403 -21.597747 -15.159286 6.179335 -44.559160 -14.852287 5.628838 22.022576 -51.563473 -4.498269 6.628588 -20.618298 -15.242933 20.257356 12.050740 5.710988 52.163351 5.855106 13.106618 2.720489 47.847468 22.438114 7.480931 19.899425 -19.962819 
-0.071503 0.242686 0.864621 82.753261 -0.588716 84.654419 11.440650 -2.412199 -41.691499 -2.950709 3.086016 26.493307 -0.348949 4.885617 -10.383580 0.000000 -0.000000 0.000000 -5.605842 -0.076891 -1.588896 3.567903 1.473435 59.075965 1.513330 0.168494 -36.967755 0.000000 -0.000000 0.000000 -2.185466 4.166246 9.634819 3.192459 -7.647680 5.638411 0.266788 -1.356858 -1.316421 0.343467 6.638207 -0.343902 4.422447 -0.309294 -6.972270 -21.863801 -13.063325 6.428013 -48.492382 -13.499152 6.068829 22.215102 -47.086300 -5.021101 7.437459 -19.436272 -15.987240 20.053585 12.719084 5.813417 54.068117 8.676471 13.349126 1.359187 40.328218 19.992016 6.575792 18.622052 -17.942066 
